<svg width="194" height="88" viewBox="0 0 194 88" fill="none" xmlns="http://www.w3.org/2000/svg">
<line x1="63.5" y1="3" x2="63.5" y2="88" stroke="#7B4E91" stroke-width="3"/>
<line x1="62" y1="1.5" x2="91.0323" y2="1.5" stroke="#7B4E91" stroke-width="3"/>
<line x1="62" y1="86.5" x2="91.0323" y2="86.5" stroke="#7B4E91" stroke-width="3"/>
<line y1="-1.5" x2="85" y2="-1.5" transform="matrix(-4.37114e-08 1 1 4.37114e-08 134 3)" stroke="#7B4E91" stroke-width="3"/>
<line y1="-1.5" x2="29.0323" y2="-1.5" transform="matrix(-1 0 0 1 134 3)" stroke="#7B4E91" stroke-width="3"/>
<line y1="-1.5" x2="29.0323" y2="-1.5" transform="matrix(-1 0 0 1 134 88)" stroke="#7B4E91" stroke-width="3"/>
<path d="M91.6562 42.9062V46.8906H76.375V57.0156H93.6719V61H72.1562V29.5938H93.6719V33.5781H76.375V42.9062H91.6562ZM122.078 42.9062V46.8906H106.797V57.0156H124.094V61H102.578V29.5938H124.094V33.5781H106.797V42.9062H122.078Z" fill="white"/>
<path d="M9.93359 41.0703C11.2227 41.0703 12.3359 41.2812 13.2734 41.7031C14.2109 42.1016 14.8555 42.4648 15.207 42.793V45.7109C14.5508 45.2188 13.8008 44.7969 12.957 44.4453C12.1133 44.0703 11.1055 43.8828 9.93359 43.8828C8.69141 43.8828 7.60156 44.1875 6.66406 44.7969C5.72656 45.3828 5 46.168 4.48438 47.1523C3.99219 48.1133 3.74609 49.168 3.74609 50.3164C3.74609 51.4414 3.99219 52.4961 4.48438 53.4805C5 54.4414 5.72656 55.2266 6.66406 55.8359C7.60156 56.4219 8.69141 56.7148 9.93359 56.7148C11.1055 56.7148 12.1133 56.5391 12.957 56.1875C13.8008 55.8125 14.5508 55.3789 15.207 54.8867V57.8047C14.8555 58.1562 14.2109 58.5312 13.2734 58.9297C12.3359 59.3281 11.2227 59.5273 9.93359 59.5273C8.15234 59.5273 6.57031 59.1055 5.1875 58.2617C3.80469 57.418 2.71484 56.3047 1.91797 54.9219C1.14453 53.5156 0.757812 51.9805 0.757812 50.3164C0.757812 48.6523 1.14453 47.1172 1.91797 45.7109C2.71484 44.3047 3.80469 43.1797 5.1875 42.3359C6.57031 41.4922 8.15234 41.0703 9.93359 41.0703ZM27.8984 41.0703C29.6797 41.0703 31.2617 41.4922 32.6445 42.3359C34.0273 43.1797 35.1055 44.3047 35.8789 45.7109C36.6758 47.1172 37.0742 48.6523 37.0742 50.3164C37.0742 51.9805 36.6758 53.5156 35.8789 54.9219C35.1055 56.3047 34.0273 57.418 32.6445 58.2617C31.2617 59.1055 29.6797 59.5273 27.8984 59.5273C26.1172 59.5273 24.5352 59.1055 23.1523 58.2617C21.7695 57.418 20.6797 56.3047 19.8828 54.9219C19.1094 53.5156 18.7227 51.9805 18.7227 50.3164C18.7227 48.6523 19.1094 47.1172 19.8828 45.7109C20.6797 44.3047 21.7695 43.1797 23.1523 42.3359C24.5352 41.4922 26.1172 41.0703 27.8984 41.0703ZM27.8984 43.8828C26.6562 43.8828 25.5664 44.1875 24.6289 44.7969C23.6914 45.3828 22.9648 46.168 22.4492 47.1523C21.957 48.1133 21.7109 49.168 21.7109 50.3164C21.7109 51.4414 21.957 52.4961 22.4492 53.4805C22.9648 54.4414 23.6914 55.2266 24.6289 55.8359C25.5664 56.4219 26.6562 56.7148 27.8984 56.7148C29.1641 56.7148 30.2539 56.4219 31.168 55.8359C32.1055 55.2266 32.8203 54.4414 33.3125 53.4805C33.8281 52.4961 34.0859 51.4414 34.0859 50.3164C34.0859 49.168 33.8281 48.1133 33.3125 47.1523C32.8203 46.168 32.1055 45.3828 31.168 44.7969C30.2539 44.1875 29.1641 43.8828 27.8984 43.8828ZM57.7109 33.6875V59H54.8281V56.0117C54.2188 56.9492 53.3867 57.7695 52.332 58.4727C51.3008 59.1758 50.1172 59.5273 48.7812 59.5273C47.2812 59.5273 45.9102 59.1523 44.668 58.4023C43.4258 57.6289 42.4297 56.5625 41.6797 55.2031C40.9531 53.8438 40.5898 52.2734 40.5898 50.4922C40.5898 48.5469 40.9531 46.8711 41.6797 45.4648C42.4297 44.0586 43.4492 42.9805 44.7383 42.2305C46.0273 41.457 47.4688 41.0703 49.0625 41.0703C50.0703 41.0703 51.0898 41.3164 52.1211 41.8086C53.1758 42.2773 54.0781 42.9336 54.8281 43.7773V33.6875H57.7109ZM49.5898 43.9531C48.3242 43.9531 47.2461 44.2695 46.3555 44.9023C45.4648 45.5117 44.7734 46.3086 44.2812 47.293C43.8125 48.2773 43.5781 49.3438 43.5781 50.4922C43.5781 51.6172 43.8125 52.6602 44.2812 53.6211C44.75 54.5586 45.4062 55.3086 46.25 55.8711C47.1172 56.4336 48.1133 56.7148 49.2383 56.7148C50.3164 56.7148 51.2773 56.4336 52.1211 55.8711C52.9648 55.3086 53.6328 54.5352 54.125 53.5508C54.6172 52.543 54.8516 51.418 54.8281 50.1758L54.793 46.8008C54.0664 45.8867 53.2812 45.1836 52.4375 44.6914C51.6172 44.1992 50.668 43.9531 49.5898 43.9531Z" fill="white"/>
<path d="M157.809 41.4219L150.531 49.8594L157.914 59H154.188L148.738 51.7227L143.254 59H139.527L146.91 49.8594L139.633 41.4219H143.359L148.738 47.75L154.082 41.4219H157.809ZM169.375 41.0703C171.156 41.0703 172.738 41.4922 174.121 42.3359C175.504 43.1797 176.582 44.3047 177.355 45.7109C178.152 47.1172 178.551 48.6523 178.551 50.3164C178.551 51.9805 178.152 53.5156 177.355 54.9219C176.582 56.3047 175.504 57.418 174.121 58.2617C172.738 59.1055 171.156 59.5273 169.375 59.5273C167.594 59.5273 166.012 59.1055 164.629 58.2617C163.246 57.418 162.156 56.3047 161.359 54.9219C160.586 53.5156 160.199 51.9805 160.199 50.3164C160.199 48.6523 160.586 47.1172 161.359 45.7109C162.156 44.3047 163.246 43.1797 164.629 42.3359C166.012 41.4922 167.594 41.0703 169.375 41.0703ZM169.375 43.8828C168.133 43.8828 167.043 44.1875 166.105 44.7969C165.168 45.3828 164.441 46.168 163.926 47.1523C163.434 48.1133 163.188 49.168 163.188 50.3164C163.188 51.4414 163.434 52.4961 163.926 53.4805C164.441 54.4414 165.168 55.2266 166.105 55.8359C167.043 56.4219 168.133 56.7148 169.375 56.7148C170.641 56.7148 171.73 56.4219 172.645 55.8359C173.582 55.2266 174.297 54.4414 174.789 53.4805C175.305 52.4961 175.562 51.4414 175.562 50.3164C175.562 49.168 175.305 48.1133 174.789 47.1523C174.297 46.168 173.582 45.3828 172.645 44.7969C171.73 44.1875 170.641 43.8828 169.375 43.8828ZM186.18 41.4219V44.9375C186.859 43.7656 187.68 42.8281 188.641 42.125C189.602 41.4219 190.586 41.0703 191.594 41.0703C192.273 41.0703 192.883 41.1875 193.422 41.4219V44.7617C192.672 44.3164 191.922 44.0938 191.172 44.0938C189.977 44.0938 189.004 44.5156 188.254 45.3594C187.527 46.2031 186.836 47.2109 186.18 48.3828V59H183.297V41.4219H186.18Z" fill="white"/>
</svg>
